<svg xmlns="http://www.w3.org/2000/svg" viewBox="0 0 48 48">
  <path fill="#fff" d="M24 8c-8.8 0-16 6.9-16 15.4 0 3 0.9 5.8 2.5 8.2L8 40l8.8-2.3c2.2 1.2 4.7 1.8 7.2 1.8 8.8 0 16-6.9 16-15.4S32.8 8 24 8zm0 28.4c-2.3 0-4.6-0.6-6.5-1.9l-0.5-0.3-5.2 1.4 1.4-5-0.3-0.5C11.5 28.2 10.8 26.2 10.8 24c0-6.8 5.9-12.4 13.2-12.4S37.2 17.2 37.2 24 31.3 36.4 24 36.4z"/>
  <path fill="#fff" d="M31.1 27.8c-0.4-0.2-2.3-1.1-2.7-1.2-0.4-0.2-0.6-0.2-0.9 0.2-0.3 0.4-1 1.2-1.2 1.4-0.2 0.2-0.4 0.3-0.8 0.1-0.4-0.2-1.6-0.6-3-1.9-1.1-1-1.8-2.2-2-2.6-0.2-0.4 0-0.6 0.2-0.8 0.2-0.2 0.4-0.4 0.6-0.6 0.2-0.2 0.2-0.4 0.3-0.7 0.1-0.2 0-0.5 0-0.7 0-0.2-0.9-2.1-1.3-2.9-0.3-0.8-0.7-0.7-0.9-0.7h-0.8c-0.3 0-0.7 0.1-1 0.5-0.3 0.4-1.3 1.2-1.3 3 0 1.8 1.3 3.5 1.4 3.8 0.2 0.2 2.5 3.9 6.1 5.3 3.6 1.4 3.6 0.9 4.2 0.8 0.6-0.1 2.3-0.9 2.6-1.8 0.3-0.8 0.3-1.6 0.2-1.8-0.1-0.2-0.3-0.3-0.7-0.5z"/>
</svg>
